<svg width="130" height="40" viewBox="0 0 130 40" fill="none" xmlns="http://www.w3.org/2000/svg">
<rect width="130" height="40" rx="10" fill="#85DAB9"/>
<path d="M17.5376 17.6172C17.4912 17.183 17.2957 16.8449 16.951 16.603C16.6096 16.361 16.1655 16.2401 15.6186 16.2401C15.2341 16.2401 14.9044 16.2981 14.6293 16.4141C14.3542 16.5301 14.1437 16.6875 13.9979 16.8864C13.852 17.0852 13.7775 17.3123 13.7741 17.5675C13.7741 17.7796 13.8222 17.9635 13.9183 18.1193C14.0178 18.2751 14.152 18.4077 14.321 18.517C14.4901 18.6231 14.6773 18.7126 14.8828 18.7855C15.0883 18.8584 15.2955 18.9197 15.5043 18.9695L16.4588 19.2081C16.8433 19.2976 17.2128 19.4186 17.5675 19.571C17.9254 19.7235 18.2453 19.9157 18.527 20.1477C18.812 20.3797 19.0374 20.6598 19.2031 20.9879C19.3688 21.3161 19.4517 21.7005 19.4517 22.1413C19.4517 22.7379 19.2992 23.2633 18.9943 23.7173C18.6894 24.1681 18.2486 24.5211 17.6719 24.7763C17.0985 25.0282 16.4041 25.1541 15.5888 25.1541C14.7966 25.1541 14.1089 25.0315 13.5256 24.7862C12.9455 24.541 12.4915 24.183 12.1634 23.7124C11.8385 23.2417 11.6629 22.6683 11.6364 21.9922H13.451C13.4775 22.3468 13.5869 22.6418 13.7791 22.8771C13.9714 23.1125 14.2216 23.2881 14.5298 23.4041C14.8414 23.5201 15.1894 23.5781 15.5739 23.5781C15.9749 23.5781 16.3262 23.5185 16.6278 23.3991C16.9328 23.2765 17.1714 23.1075 17.3438 22.892C17.5161 22.6733 17.6039 22.4181 17.6072 22.1264C17.6039 21.8613 17.526 21.6425 17.3736 21.4702C17.2211 21.2945 17.0073 21.1487 16.7322 21.0327C16.4605 20.9134 16.1423 20.8073 15.7777 20.7145L14.6193 20.4162C13.7808 20.2008 13.1179 19.8743 12.6307 19.4368C12.1468 18.996 11.9048 18.411 11.9048 17.6818C11.9048 17.0819 12.0672 16.5566 12.392 16.1058C12.7202 15.6551 13.166 15.3054 13.7294 15.0568C14.2929 14.8049 14.9309 14.679 15.6435 14.679C16.366 14.679 16.9991 14.8049 17.5426 15.0568C18.0895 15.3054 18.5187 15.6518 18.8303 16.0959C19.1418 16.5367 19.3026 17.0438 19.3125 17.6172H17.5376ZM23.214 25.1541C22.7301 25.1541 22.2942 25.0679 21.9064 24.8956C21.522 24.7199 21.217 24.4614 20.9917 24.12C20.7696 23.7786 20.6586 23.3577 20.6586 22.8572C20.6586 22.4264 20.7381 22.0701 20.8972 21.7884C21.0563 21.5066 21.2734 21.2812 21.5485 21.1122C21.8236 20.9432 22.1335 20.8156 22.4782 20.7294C22.8262 20.6399 23.1858 20.5753 23.557 20.5355C24.0044 20.4891 24.3674 20.4477 24.6458 20.4112C24.9242 20.3714 25.1264 20.3118 25.2523 20.2322C25.3816 20.1494 25.4462 20.0218 25.4462 19.8494V19.8196C25.4462 19.4451 25.3352 19.1551 25.1131 18.9496C24.891 18.7441 24.5712 18.6413 24.1536 18.6413C23.7128 18.6413 23.3631 18.7375 23.1046 18.9297C22.8494 19.1219 22.677 19.349 22.5875 19.6108L20.9071 19.3722C21.0397 18.9081 21.2585 18.5204 21.5634 18.2088C21.8683 17.8939 22.2412 17.6586 22.682 17.5028C23.1228 17.3438 23.61 17.2642 24.1436 17.2642C24.5115 17.2642 24.8778 17.3073 25.2424 17.3935C25.6069 17.4796 25.94 17.6222 26.2417 17.821C26.5433 18.0166 26.7852 18.2834 26.9675 18.6214C27.1531 18.9595 27.2459 19.3821 27.2459 19.8892V25H25.5158V23.951H25.4561C25.3468 24.1631 25.1926 24.362 24.9938 24.5476C24.7982 24.7299 24.5513 24.8774 24.253 24.9901C23.958 25.0994 23.6117 25.1541 23.214 25.1541ZM23.6813 23.8317C24.0426 23.8317 24.3558 23.7604 24.6209 23.6179C24.8861 23.4721 25.0899 23.2798 25.2324 23.0412C25.3783 22.8026 25.4512 22.5424 25.4512 22.2607V21.3608C25.3948 21.4072 25.2987 21.4503 25.1628 21.4901C25.0302 21.5298 24.8811 21.5646 24.7154 21.5945C24.5497 21.6243 24.3856 21.6508 24.2232 21.674C24.0608 21.6972 23.9199 21.7171 23.8006 21.7337C23.5321 21.7701 23.2918 21.8298 23.0797 21.9126C22.8676 21.9955 22.7002 22.1115 22.5776 22.2607C22.455 22.4065 22.3936 22.5954 22.3936 22.8274C22.3936 23.1589 22.5146 23.4091 22.7566 23.5781C22.9985 23.7472 23.3068 23.8317 23.6813 23.8317ZM35.6032 17.3636L32.8837 25H30.8951L28.1756 17.3636H30.0946L31.8496 23.0362H31.9292L33.6891 17.3636H35.6032ZM39.9695 25.1491C39.2038 25.1491 38.5426 24.9901 37.9858 24.6719C37.4323 24.3504 37.0064 23.8963 36.7081 23.3097C36.4098 22.7197 36.2607 22.0253 36.2607 21.2266C36.2607 20.4411 36.4098 19.7517 36.7081 19.1584C37.0097 18.5618 37.4306 18.0978 37.9709 17.7663C38.5111 17.4316 39.1458 17.2642 39.875 17.2642C40.3456 17.2642 40.7898 17.3404 41.2074 17.4929C41.6283 17.642 41.9995 17.8741 42.321 18.1889C42.6458 18.5038 42.901 18.9048 43.0866 19.392C43.2723 19.8759 43.3651 20.4527 43.3651 21.1222V21.674H37.1058V20.4609H41.6399C41.6366 20.1162 41.562 19.8097 41.4162 19.5412C41.2704 19.2694 41.0665 19.0556 40.8047 18.8999C40.5462 18.7441 40.2446 18.6662 39.8999 18.6662C39.532 18.6662 39.2088 18.7557 38.9304 18.9347C38.652 19.1103 38.4349 19.3423 38.2791 19.6307C38.1267 19.9157 38.0488 20.2289 38.0455 20.5703V21.6293C38.0455 22.0734 38.1267 22.4545 38.2891 22.7727C38.4515 23.0876 38.6785 23.3295 38.9702 23.4986C39.2618 23.6643 39.6032 23.7472 39.9943 23.7472C40.2562 23.7472 40.4931 23.7107 40.7053 23.6378C40.9174 23.5616 41.1013 23.4505 41.2571 23.3047C41.4129 23.1589 41.5305 22.9782 41.6101 22.7628L43.2905 22.9517C43.1844 23.3958 42.9822 23.7836 42.6839 24.1151C42.389 24.4432 42.0111 24.6984 41.5504 24.8807C41.0897 25.0597 40.5627 25.1491 39.9695 25.1491ZM51.6216 26.2727V13.5455H52.437V26.2727H51.6216ZM53.9732 17.6172C53.9268 17.183 53.7312 16.8449 53.3865 16.603C53.0452 16.361 52.601 16.2401 52.0542 16.2401C51.6697 16.2401 51.3399 16.2981 51.0648 16.4141C50.7897 16.5301 50.5792 16.6875 50.4334 16.8864C50.2876 17.0852 50.213 17.3123 50.2097 17.5675C50.2097 17.7796 50.2578 17.9635 50.3539 18.1193C50.4533 18.2751 50.5875 18.4077 50.7566 18.517C50.9256 18.6231 51.1129 18.7126 51.3184 18.7855C51.5239 18.8584 51.731 18.9197 51.9398 18.9695L52.8944 19.2081C53.2788 19.2976 53.6484 19.4186 54.003 19.571C54.361 19.7235 54.6808 19.9157 54.9625 20.1477C55.2476 20.3797 55.473 20.6598 55.6387 20.9879C55.8044 21.3161 55.8873 21.7005 55.8873 22.1413C55.8873 22.7379 55.7348 23.2633 55.4299 23.7173C55.1249 24.1681 54.6841 24.5211 54.1074 24.7763C53.534 25.0282 52.8397 25.1541 52.0243 25.1541C51.2322 25.1541 50.5444 25.0315 49.9611 24.7862C49.3811 24.541 48.927 24.183 48.5989 23.7124C48.2741 23.2417 48.0984 22.6683 48.0719 21.9922H49.8865C49.9131 22.3468 50.0224 22.6418 50.2147 22.8771C50.4069 23.1125 50.6571 23.2881 50.9654 23.4041C51.2769 23.5201 51.6249 23.5781 52.0094 23.5781C52.4105 23.5781 52.7618 23.5185 53.0634 23.3991C53.3683 23.2765 53.6069 23.1075 53.7793 22.892C53.9516 22.6733 54.0395 22.4181 54.0428 22.1264C54.0395 21.8613 53.9616 21.6425 53.8091 21.4702C53.6567 21.2945 53.4429 21.1487 53.1678 21.0327C52.896 20.9134 52.5778 20.8073 52.2132 20.7145L51.0549 20.4162C50.2163 20.2008 49.5534 19.8743 49.0662 19.4368C48.5823 18.996 48.3404 18.411 48.3404 17.6818C48.3404 17.0819 48.5028 16.5566 48.8276 16.1058C49.1557 15.6551 49.6015 15.3054 50.165 15.0568C50.7284 14.8049 51.3664 14.679 52.079 14.679C52.8016 14.679 53.4346 14.8049 53.9782 15.0568C54.525 15.3054 54.9542 15.6518 55.2658 16.0959C55.5774 16.5367 55.7381 17.0438 55.748 17.6172H53.9732ZM60.9719 25.1392C60.3091 25.1392 59.7158 25.0149 59.1921 24.7663C58.6684 24.5144 58.2525 24.1697 57.9442 23.7322C57.6393 23.2947 57.4769 22.7943 57.457 22.2308H59.2468C59.2799 22.6484 59.4606 22.9898 59.7887 23.255C60.1168 23.5168 60.5112 23.6477 60.9719 23.6477C61.3332 23.6477 61.6547 23.5649 61.9364 23.3991C62.2182 23.2334 62.4402 23.0031 62.6026 22.7081C62.765 22.4131 62.8446 22.0767 62.8413 21.6989C62.8446 21.3144 62.7634 20.973 62.5977 20.6747C62.4319 20.3764 62.2049 20.1428 61.9165 19.9737C61.6282 19.8014 61.2968 19.7152 60.9222 19.7152C60.6173 19.7119 60.3174 19.7682 60.0224 19.8842C59.7274 20.0002 59.4937 20.1527 59.3214 20.3416L57.6559 20.0682L58.1879 14.8182H64.0941V16.3594H59.7141L59.4208 19.0589H59.4805C59.6694 18.8369 59.9362 18.6529 60.2809 18.5071C60.6256 18.358 61.0034 18.2834 61.4144 18.2834C62.0309 18.2834 62.5811 18.4292 63.065 18.7209C63.5489 19.0092 63.93 19.407 64.2085 19.9141C64.4869 20.4212 64.6261 21.0012 64.6261 21.6541C64.6261 22.3269 64.4703 22.9268 64.1587 23.4538C63.8505 23.9775 63.4213 24.3902 62.8711 24.6918C62.3242 24.9901 61.6912 25.1392 60.9719 25.1392ZM70.055 25.1939C69.2364 25.1939 68.5337 24.9867 67.9471 24.5724C67.3638 24.1548 66.9147 23.5533 66.5998 22.7678C66.2882 21.9789 66.1325 21.0294 66.1325 19.919C66.1358 18.8087 66.2932 17.8641 66.6048 17.0852C66.9196 16.303 67.3687 15.7064 67.9521 15.2955C68.5387 14.8845 69.2397 14.679 70.055 14.679C70.8704 14.679 71.5714 14.8845 72.158 15.2955C72.7447 15.7064 73.1938 16.303 73.5053 17.0852C73.8202 17.8674 73.9776 18.812 73.9776 19.919C73.9776 21.0327 73.8202 21.9839 73.5053 22.7727C73.1938 23.5582 72.7447 24.1581 72.158 24.5724C71.5747 24.9867 70.8737 25.1939 70.055 25.1939ZM70.055 23.6378C70.6914 23.6378 71.1935 23.3246 71.5614 22.6982C71.9326 22.0684 72.1183 21.142 72.1183 19.919C72.1183 19.1103 72.0337 18.4309 71.8647 17.8807C71.6957 17.3305 71.457 16.9162 71.1488 16.6378C70.8406 16.3561 70.476 16.2152 70.055 16.2152C69.422 16.2152 68.9215 16.5301 68.5536 17.1598C68.1857 17.7862 68.0001 18.706 67.9968 19.919C67.9935 20.7311 68.0747 21.4138 68.2404 21.9673C68.4094 22.5208 68.6481 22.9384 68.9563 23.2202C69.2646 23.4986 69.6308 23.6378 70.055 23.6378ZM81.3194 25.1541C80.8355 25.1541 80.3997 25.0679 80.0119 24.8956C79.6274 24.7199 79.3225 24.4614 79.0971 24.12C78.8751 23.7786 78.764 23.3577 78.764 22.8572C78.764 22.4264 78.8436 22.0701 79.0027 21.7884C79.1618 21.5066 79.3788 21.2812 79.6539 21.1122C79.929 20.9432 80.2389 20.8156 80.5836 20.7294C80.9316 20.6399 81.2913 20.5753 81.6625 20.5355C82.1099 20.4891 82.4728 20.4477 82.7512 20.4112C83.0297 20.3714 83.2318 20.3118 83.3578 20.2322C83.487 20.1494 83.5517 20.0218 83.5517 19.8494V19.8196C83.5517 19.4451 83.4406 19.1551 83.2186 18.9496C82.9965 18.7441 82.6767 18.6413 82.2591 18.6413C81.8182 18.6413 81.4686 18.7375 81.21 18.9297C80.9548 19.1219 80.7825 19.349 80.693 19.6108L79.0126 19.3722C79.1452 18.9081 79.3639 18.5204 79.6689 18.2088C79.9738 17.8939 80.3467 17.6586 80.7875 17.5028C81.2283 17.3438 81.7155 17.2642 82.2491 17.2642C82.617 17.2642 82.9833 17.3073 83.3478 17.3935C83.7124 17.4796 84.0455 17.6222 84.3471 17.821C84.6487 18.0166 84.8907 18.2834 85.073 18.6214C85.2586 18.9595 85.3514 19.3821 85.3514 19.8892V25H83.6213V23.951H83.5616C83.4522 24.1631 83.2981 24.362 83.0993 24.5476C82.9037 24.7299 82.6568 24.8774 82.3585 24.9901C82.0635 25.0994 81.7172 25.1541 81.3194 25.1541ZM81.7868 23.8317C82.148 23.8317 82.4612 23.7604 82.7264 23.6179C82.9915 23.4721 83.1954 23.2798 83.3379 23.0412C83.4837 22.8026 83.5566 22.5424 83.5566 22.2607V21.3608C83.5003 21.4072 83.4042 21.4503 83.2683 21.4901C83.1357 21.5298 82.9866 21.5646 82.8208 21.5945C82.6551 21.6243 82.4911 21.6508 82.3287 21.674C82.1663 21.6972 82.0254 21.7171 81.9061 21.7337C81.6376 21.7701 81.3973 21.8298 81.1852 21.9126C80.9731 21.9955 80.8057 22.1115 80.6831 22.2607C80.5604 22.4065 80.4991 22.5954 80.4991 22.8274C80.4991 23.1589 80.6201 23.4091 80.862 23.5781C81.104 23.7472 81.4122 23.8317 81.7868 23.8317ZM91.7523 27.8636C91.507 27.8636 91.28 27.8438 91.0712 27.804C90.8657 27.7675 90.7016 27.7244 90.579 27.6747L90.9966 26.2727C91.2585 26.349 91.4921 26.3854 91.6976 26.3821C91.9031 26.3788 92.0837 26.3142 92.2395 26.1882C92.3986 26.0656 92.5328 25.8601 92.6422 25.5717L92.7963 25.1591L90.0272 17.3636H91.9363L93.6962 23.1307H93.7757L95.5407 17.3636H97.4547L94.3972 25.9247C94.2547 26.3291 94.0658 26.6754 93.8304 26.9638C93.5951 27.2554 93.3068 27.4775 92.9654 27.63C92.6273 27.7857 92.223 27.8636 91.7523 27.8636ZM101.821 25.1491C101.055 25.1491 100.394 24.9901 99.8374 24.6719C99.2839 24.3504 98.858 23.8963 98.5597 23.3097C98.2614 22.7197 98.1122 22.0253 98.1122 21.2266C98.1122 20.4411 98.2614 19.7517 98.5597 19.1584C98.8613 18.5618 99.2822 18.0978 99.8224 17.7663C100.363 17.4316 100.997 17.2642 101.727 17.2642C102.197 17.2642 102.641 17.3404 103.059 17.4929C103.48 17.642 103.851 17.8741 104.173 18.1889C104.497 18.5038 104.753 18.9048 104.938 19.392C105.124 19.8759 105.217 20.4527 105.217 21.1222V21.674H98.9574V20.4609H103.491C103.488 20.1162 103.414 19.8097 103.268 19.5412C103.122 19.2694 102.918 19.0556 102.656 18.8999C102.398 18.7441 102.096 18.6662 101.751 18.6662C101.384 18.6662 101.06 18.7557 100.782 18.9347C100.504 19.1103 100.286 19.3423 100.131 19.6307C99.9782 19.9157 99.9003 20.2289 99.897 20.5703V21.6293C99.897 22.0734 99.9782 22.4545 100.141 22.7727C100.303 23.0876 100.53 23.3295 100.822 23.4986C101.113 23.6643 101.455 23.7472 101.846 23.7472C102.108 23.7472 102.345 23.7107 102.557 23.6378C102.769 23.5616 102.953 23.4505 103.109 23.3047C103.264 23.1589 103.382 22.9782 103.462 22.7628L105.142 22.9517C105.036 23.3958 104.834 23.7836 104.536 24.1151C104.241 24.4432 103.863 24.6984 103.402 24.8807C102.941 25.0597 102.414 25.1491 101.821 25.1491ZM108.937 25.1541C108.453 25.1541 108.017 25.0679 107.629 24.8956C107.245 24.7199 106.94 24.4614 106.714 24.12C106.492 23.7786 106.381 23.3577 106.381 22.8572C106.381 22.4264 106.461 22.0701 106.62 21.7884C106.779 21.5066 106.996 21.2812 107.271 21.1122C107.546 20.9432 107.856 20.8156 108.201 20.7294C108.549 20.6399 108.908 20.5753 109.28 20.5355C109.727 20.4891 110.09 20.4477 110.368 20.4112C110.647 20.3714 110.849 20.3118 110.975 20.2322C111.104 20.1494 111.169 20.0218 111.169 19.8494V19.8196C111.169 19.4451 111.058 19.1551 110.836 18.9496C110.614 18.7441 110.294 18.6413 109.876 18.6413C109.435 18.6413 109.086 18.7375 108.827 18.9297C108.572 19.1219 108.4 19.349 108.31 19.6108L106.63 19.3722C106.762 18.9081 106.981 18.5204 107.286 18.2088C107.591 17.8939 107.964 17.6586 108.405 17.5028C108.845 17.3438 109.333 17.2642 109.866 17.2642C110.234 17.2642 110.6 17.3073 110.965 17.3935C111.33 17.4796 111.663 17.6222 111.964 17.821C112.266 18.0166 112.508 18.2834 112.69 18.6214C112.876 18.9595 112.969 19.3821 112.969 19.8892V25H111.238V23.951H111.179C111.069 24.1631 110.915 24.362 110.716 24.5476C110.521 24.7299 110.274 24.8774 109.976 24.9901C109.681 25.0994 109.334 25.1541 108.937 25.1541ZM109.404 23.8317C109.765 23.8317 110.078 23.7604 110.344 23.6179C110.609 23.4721 110.813 23.2798 110.955 23.0412C111.101 22.8026 111.174 22.5424 111.174 22.2607V21.3608C111.117 21.4072 111.021 21.4503 110.885 21.4901C110.753 21.5298 110.604 21.5646 110.438 21.5945C110.272 21.6243 110.108 21.6508 109.946 21.674C109.783 21.6972 109.643 21.7171 109.523 21.7337C109.255 21.7701 109.015 21.8298 108.802 21.9126C108.59 21.9955 108.423 22.1115 108.3 22.2607C108.178 22.4065 108.116 22.5954 108.116 22.8274C108.116 23.1589 108.237 23.4091 108.479 23.5781C108.721 23.7472 109.029 23.8317 109.404 23.8317ZM114.778 25V17.3636H116.523V18.6364H116.603C116.742 18.1955 116.981 17.8558 117.319 17.6172C117.66 17.3752 118.05 17.2543 118.487 17.2543C118.586 17.2543 118.698 17.2592 118.82 17.2692C118.946 17.2758 119.05 17.2874 119.133 17.304V18.9595C119.057 18.933 118.936 18.9098 118.77 18.8899C118.608 18.8667 118.451 18.8551 118.298 18.8551C117.97 18.8551 117.675 18.9264 117.413 19.0689C117.155 19.2081 116.951 19.402 116.802 19.6506C116.653 19.8991 116.578 20.1858 116.578 20.5107V25H114.778Z" fill="white"/>
</svg>
