<svg width="360" height="428" viewBox="0 0 360 428" fill="none" xmlns="http://www.w3.org/2000/svg">
<path d="M0 87C0 81.4771 4.47715 77 10 77H343C348.523 77 353 81.4772 353 87V418C353 423.523 348.523 428 343 428H10C4.47715 428 0 423.523 0 418V87Z" fill="#E9EFFC"/>
<path d="M18 95H344V409H18V95Z" fill="#F5FAFA"/>
<path d="M65 171C65 165.477 69.4772 161 75 161H125C130.523 161 135 165.477 135 171V221C135 226.523 130.523 231 125 231H75C69.4772 231 65 226.523 65 221V171Z" fill="#0F8CE9"/>
<path d="M110.586 196.001C110.856 195.115 111 194.18 111 193.214C111 187.573 106.075 183 100 183C93.9249 183 89 187.573 89 193.214C89 194.18 89.1444 195.115 89.4142 196.001C85.8639 196.046 83 198.939 83 202.5C83 206.09 85.9101 209 89.5 209H110.5C114.09 209 117 206.09 117 202.5C117 198.939 114.136 196.046 110.586 196.001Z" fill="#0F8CE9"/>
<path d="M165 223C165 220.239 167.239 218 170 218H350C352.761 218 355 220.239 355 223C355 225.761 352.761 228 350 228H170C167.239 228 165 225.761 165 223Z" fill="#DBE5FA"/>
<path d="M165 223C165 220.239 167.239 218 170 218H252C254.761 218 257 220.239 257 223C257 225.761 254.761 228 252 228H170C167.239 228 165 225.761 165 223Z" fill="#54BD95"/>
<path d="M165 199C165 197.343 166.343 196 168 196H266C267.657 196 269 197.343 269 199C269 200.657 267.657 202 266 202H168C166.343 202 165 200.657 165 199Z" fill="#DBE5FA"/>
<path d="M165 172C165 167.582 168.582 164 173 164H347C351.418 164 355 167.582 355 172C355 176.418 351.418 180 347 180H173C168.582 180 165 176.418 165 172Z" fill="#DBE5FA"/>
<path d="M7 285C7 279.477 11.4772 275 17 275H345C350.523 275 355 279.477 355 285V371C355 376.523 350.523 381 345 381H17C11.4772 381 7 376.523 7 371V285Z" fill="white"/>
<path d="M25 303C25 297.477 29.4772 293 35 293H85C90.5229 293 95 297.477 95 303V353C95 358.523 90.5229 363 85 363H35C29.4772 363 25 358.523 25 353V303Z" fill="white"/>
<path d="M125 355C125 352.239 127.239 350 130 350H348C350.761 350 353 352.239 353 355C353 357.761 350.761 360 348 360H130C127.239 360 125 357.761 125 355Z" fill="#DBE5FA"/>
<path d="M125 355C125 352.239 127.239 350 130 350H283.2C285.961 350 288.2 352.239 288.2 355C288.2 357.761 285.961 360 283.2 360H130C127.239 360 125 357.761 125 355Z" fill="#54BD95"/>
<path d="M125 331C125 329.343 126.343 328 128 328H246.8C248.457 328 249.8 329.343 249.8 331C249.8 332.657 248.457 334 246.8 334H128C126.343 334 125 332.657 125 331Z" fill="#DBE5FA"/>
<path d="M125 304C125 299.582 128.582 296 133 296H345C349.418 296 353 299.582 353 304C353 308.418 349.418 312 345 312H133C128.582 312 125 308.418 125 304Z" fill="#DBE5FA"/>
<path d="M66.9507 324.553H53.0493C52.2605 324.553 51.6211 325.192 51.6211 325.981C51.6211 326.77 52.2605 327.409 53.0493 327.409V328.361C53.0493 329.15 53.6888 329.79 54.4775 329.79C55.2663 329.79 55.9057 329.15 55.9057 328.361V327.409H64.0941V328.361C64.0941 329.15 64.7336 329.79 65.5223 329.79C66.3111 329.79 66.9505 329.15 66.9505 328.361V327.409C67.7393 327.409 68.3788 326.77 68.3788 325.981C68.3788 325.192 67.7395 324.553 66.9507 324.553Z" fill="#54BD95"/>
<path d="M60 317.888C58.4224 317.888 57.1436 319.167 57.1436 320.744H62.8565C62.8564 319.167 61.5776 317.888 60 317.888Z" fill="#54BD95"/>
<path d="M60 308C48.9543 308 40 316.954 40 328C40 339.046 48.9543 348 60 348C71.0457 348 80 339.046 80 328C80 316.954 71.0457 308 60 308ZM72.1875 336.55C72.1875 338.127 70.9086 339.406 69.3311 339.406H50.6689C49.0914 339.406 47.8125 338.127 47.8125 336.55V323.601C47.8125 322.023 49.0914 320.744 50.6689 320.744H54.287C54.2871 317.589 56.8448 315.031 60 315.031C63.1552 315.031 65.7129 317.589 65.7129 320.744H69.331C70.9086 320.744 72.1874 322.023 72.1874 323.601L72.1875 336.55Z" fill="#54BD95"/>
<path d="M73.5341 119.139C73.08 119.133 72.6326 119.05 72.1918 118.891C71.7543 118.732 71.3565 118.466 70.9986 118.095C70.6406 117.724 70.3539 117.225 70.1385 116.599C69.9264 115.972 69.8203 115.19 69.8203 114.252C69.8203 113.364 69.9081 112.575 70.0838 111.886C70.2628 111.196 70.5196 110.615 70.8544 110.141C71.1892 109.663 71.5935 109.3 72.0675 109.052C72.5414 108.803 73.0734 108.679 73.6634 108.679C74.2699 108.679 74.8085 108.798 75.2791 109.037C75.7498 109.276 76.1309 109.605 76.4226 110.026C76.7176 110.447 76.9048 110.926 76.9844 111.463H75.468C75.3653 111.039 75.1615 110.692 74.8565 110.424C74.5516 110.156 74.1539 110.021 73.6634 110.021C72.9176 110.021 72.3359 110.346 71.9183 110.996C71.504 111.645 71.2952 112.549 71.2919 113.705H71.3665C71.5421 113.417 71.7576 113.172 72.0128 112.969C72.2713 112.764 72.5597 112.607 72.8778 112.497C73.1993 112.384 73.5374 112.328 73.892 112.328C74.482 112.328 75.0156 112.472 75.4929 112.761C75.9735 113.046 76.3563 113.44 76.6413 113.944C76.9264 114.448 77.0689 115.024 77.0689 115.674C77.0689 116.324 76.9214 116.912 76.6264 117.439C76.3348 117.966 75.9238 118.384 75.3935 118.692C74.8632 118.997 74.2434 119.146 73.5341 119.139ZM73.5291 117.847C73.9202 117.847 74.2699 117.75 74.5781 117.558C74.8864 117.366 75.13 117.107 75.309 116.783C75.4879 116.458 75.5774 116.095 75.5774 115.694C75.5774 115.303 75.4896 114.946 75.3139 114.625C75.1416 114.304 74.9029 114.048 74.598 113.859C74.2964 113.67 73.9517 113.576 73.5639 113.576C73.2689 113.576 72.9955 113.632 72.7436 113.745C72.495 113.858 72.2763 114.013 72.0874 114.212C71.8984 114.411 71.7493 114.64 71.6399 114.898C71.5339 115.154 71.4808 115.424 71.4808 115.709C71.4808 116.09 71.5687 116.443 71.7443 116.768C71.9233 117.093 72.1669 117.354 72.4751 117.553C72.7867 117.749 73.138 117.847 73.5291 117.847Z" fill="black"/>
<path d="M82.4245 119.169C81.639 119.166 80.9679 118.959 80.411 118.548C79.8542 118.137 79.4283 117.538 79.1333 116.753C78.8384 115.967 78.6909 115.021 78.6909 113.914C78.6909 112.81 78.8384 111.867 79.1333 111.085C79.4316 110.303 79.8592 109.706 80.416 109.295C80.9761 108.884 81.6457 108.679 82.4245 108.679C83.2034 108.679 83.8713 108.886 84.4281 109.3C84.9849 109.711 85.4108 110.308 85.7058 111.09C86.0041 111.869 86.1532 112.81 86.1532 113.914C86.1532 115.024 86.0057 115.972 85.7108 116.758C85.4158 117.54 84.9899 118.138 84.4331 118.553C83.8762 118.964 83.2067 119.169 82.4245 119.169ZM82.4245 117.842C83.1139 117.842 83.6525 117.505 84.0403 116.832C84.4314 116.16 84.627 115.187 84.627 113.914C84.627 113.069 84.5375 112.355 84.3585 111.771C84.1828 111.185 83.9293 110.741 83.5978 110.439C83.2697 110.134 82.8786 109.982 82.4245 109.982C81.7385 109.982 81.1999 110.32 80.8088 110.996C80.4177 111.672 80.2205 112.645 80.2172 113.914C80.2172 114.763 80.305 115.48 80.4806 116.067C80.6596 116.65 80.9132 117.093 81.2413 117.394C81.5694 117.692 81.9638 117.842 82.4245 117.842Z" fill="black"/>
<path d="M93.2315 117.091V116.554C93.2315 116.17 93.3111 115.818 93.4702 115.5C93.6326 115.179 93.8679 114.922 94.1761 114.729C94.4877 114.534 94.8639 114.436 95.3047 114.436C95.7554 114.436 96.1333 114.532 96.4382 114.724C96.7431 114.917 96.9735 115.174 97.1293 115.495C97.2884 115.817 97.3679 116.17 97.3679 116.554V117.091C97.3679 117.475 97.2884 117.828 97.1293 118.15C96.9702 118.468 96.7365 118.725 96.4283 118.92C96.1233 119.113 95.7488 119.209 95.3047 119.209C94.8572 119.209 94.4794 119.113 94.1712 118.92C93.8629 118.725 93.6293 118.468 93.4702 118.15C93.3111 117.828 93.2315 117.475 93.2315 117.091ZM94.3899 116.554V117.091C94.3899 117.376 94.4579 117.634 94.5938 117.866C94.7296 118.098 94.9666 118.214 95.3047 118.214C95.6394 118.214 95.8731 118.098 96.0057 117.866C96.1383 117.634 96.2045 117.376 96.2045 117.091V116.554C96.2045 116.269 96.1399 116.01 96.0107 115.778C95.8847 115.546 95.6494 115.43 95.3047 115.43C94.9732 115.43 94.7379 115.546 94.5987 115.778C94.4595 116.01 94.3899 116.269 94.3899 116.554ZM88.1108 111.264V110.727C88.1108 110.343 88.1903 109.99 88.3494 109.668C88.5118 109.347 88.7472 109.09 89.0554 108.898C89.367 108.705 89.7431 108.609 90.184 108.609C90.6347 108.609 91.0125 108.705 91.3175 108.898C91.6224 109.09 91.8527 109.347 92.0085 109.668C92.1643 109.99 92.2422 110.343 92.2422 110.727V111.264C92.2422 111.649 92.1626 112.002 92.0035 112.323C91.8478 112.641 91.6158 112.898 91.3075 113.094C91.0026 113.286 90.6281 113.382 90.184 113.382C89.7332 113.382 89.3537 113.286 89.0455 113.094C88.7405 112.898 88.5085 112.641 88.3494 112.323C88.1903 112.002 88.1108 111.649 88.1108 111.264ZM89.2741 110.727V111.264C89.2741 111.549 89.3404 111.808 89.473 112.04C89.6089 112.272 89.8459 112.388 90.184 112.388C90.5154 112.388 90.7474 112.272 90.88 112.04C91.0159 111.808 91.0838 111.549 91.0838 111.264V110.727C91.0838 110.442 91.0192 110.184 90.8899 109.952C90.7607 109.72 90.5253 109.604 90.184 109.604C89.8525 109.604 89.6172 109.72 89.478 109.952C89.3421 110.184 89.2741 110.442 89.2741 110.727ZM88.5831 119L95.5831 108.818H96.7713L89.7713 119H88.5831Z" fill="black"/>
<path d="M225.766 117.011V115.768L230.165 108.818H231.145V110.648H230.523L227.376 115.629V115.709H233.407V117.011H225.766ZM230.593 119V116.634L230.603 116.067V108.818H232.06V119H230.593Z" fill="black"/>
<path d="M238.684 119.169C237.899 119.166 237.228 118.959 236.671 118.548C236.114 118.137 235.688 117.538 235.393 116.753C235.098 115.967 234.951 115.021 234.951 113.914C234.951 112.81 235.098 111.867 235.393 111.085C235.691 110.303 236.119 109.706 236.676 109.295C237.236 108.884 237.905 108.679 238.684 108.679C239.463 108.679 240.131 108.886 240.688 109.3C241.245 109.711 241.671 110.308 241.966 111.09C242.264 111.869 242.413 112.81 242.413 113.914C242.413 115.024 242.266 115.972 241.971 116.758C241.676 117.54 241.25 118.138 240.693 118.553C240.136 118.964 239.467 119.169 238.684 119.169ZM238.684 117.842C239.374 117.842 239.912 117.505 240.3 116.832C240.691 116.16 240.887 115.187 240.887 113.914C240.887 113.069 240.797 112.355 240.618 111.771C240.443 111.185 240.189 110.741 239.858 110.439C239.529 110.134 239.138 109.982 238.684 109.982C237.998 109.982 237.46 110.32 237.069 110.996C236.677 111.672 236.48 112.645 236.477 113.914C236.477 114.763 236.565 115.48 236.74 116.067C236.919 116.65 237.173 117.093 237.501 117.394C237.829 117.692 238.224 117.842 238.684 117.842Z" fill="black"/>
<path d="M249.491 117.091V116.554C249.491 116.17 249.571 115.818 249.73 115.5C249.892 115.179 250.128 114.922 250.436 114.729C250.747 114.534 251.124 114.436 251.564 114.436C252.015 114.436 252.393 114.532 252.698 114.724C253.003 114.917 253.233 115.174 253.389 115.495C253.548 115.817 253.628 116.17 253.628 116.554V117.091C253.628 117.475 253.548 117.828 253.389 118.15C253.23 118.468 252.996 118.725 252.688 118.92C252.383 119.113 252.009 119.209 251.564 119.209C251.117 119.209 250.739 119.113 250.431 118.92C250.123 118.725 249.889 118.468 249.73 118.15C249.571 117.828 249.491 117.475 249.491 117.091ZM250.65 116.554V117.091C250.65 117.376 250.718 117.634 250.854 117.866C250.989 118.098 251.226 118.214 251.564 118.214C251.899 118.214 252.133 118.098 252.265 117.866C252.398 117.634 252.464 117.376 252.464 117.091V116.554C252.464 116.269 252.4 116.01 252.27 115.778C252.144 115.546 251.909 115.43 251.564 115.43C251.233 115.43 250.998 115.546 250.858 115.778C250.719 116.01 250.65 116.269 250.65 116.554ZM244.371 111.264V110.727C244.371 110.343 244.45 109.99 244.609 109.668C244.772 109.347 245.007 109.09 245.315 108.898C245.627 108.705 246.003 108.609 246.444 108.609C246.894 108.609 247.272 108.705 247.577 108.898C247.882 109.09 248.113 109.347 248.268 109.668C248.424 109.99 248.502 110.343 248.502 110.727V111.264C248.502 111.649 248.422 112.002 248.263 112.323C248.108 112.641 247.876 112.898 247.567 113.094C247.262 113.286 246.888 113.382 246.444 113.382C245.993 113.382 245.613 113.286 245.305 113.094C245 112.898 244.768 112.641 244.609 112.323C244.45 112.002 244.371 111.649 244.371 111.264ZM245.534 110.727V111.264C245.534 111.549 245.6 111.808 245.733 112.04C245.869 112.272 246.106 112.388 246.444 112.388C246.775 112.388 247.007 112.272 247.14 112.04C247.276 111.808 247.344 111.549 247.344 111.264V110.727C247.344 110.442 247.279 110.184 247.15 109.952C247.02 109.72 246.785 109.604 246.444 109.604C246.112 109.604 245.877 109.72 245.738 109.952C245.602 110.184 245.534 110.442 245.534 110.727ZM244.843 119L251.843 108.818H253.031L246.031 119H244.843Z" fill="black"/>
<path d="M199 95C199 116.539 181.539 134 160 134C138.461 134 121 116.539 121 95C121 73.4609 138.461 56 160 56C181.539 56 199 73.4609 199 95Z" fill="#FEFEFD"/>
<path d="M190 95C190 111.569 176.569 125 160 125C143.431 125 130 111.569 130 95C130 78.4315 143.431 65 160 65C176.569 65 190 78.4315 190 95Z" fill="#E6F9FD"/>
<path d="M152.48 107.757C157.533 110.897 163.885 109.197 166.699 103.952C167.68 102.123 168.054 100.027 168.041 98.1055L167.825 83.7136C167.826 82.7832 167.261 81.9664 166.552 81.5255C165.842 81.0845 164.939 80.9891 164.155 81.4329L152.47 88.4213C150.911 89.3661 149.434 90.7347 148.436 92.5953C145.622 97.8403 147.427 104.617 152.48 107.757ZM159.068 95.4763C160.903 96.6167 161.567 99.1038 160.546 101.009C159.524 102.914 157.19 103.538 155.355 102.398C153.52 101.257 152.856 98.7704 153.878 96.8654C154.903 94.9541 157.233 94.336 159.068 95.4763Z" fill="#0F8CE9"/>
</svg>
